<svg width="375" height="106" viewBox="0 0 375 106" fill="none" xmlns="http://www.w3.org/2000/svg">
<path d="M12.2 -0.500006H41.45L32.9 40L70.1 -0.500006H103.25L56.6 47.2L83.15 106H49.4L33.8 66.85L25.4 75.25L18.8 106H-10.45L12.2 -0.500006ZM80.9059 -0.500006H111.806L115.406 69.25L148.406 -0.500006H179.156L119.756 106H95.4559L80.9059 -0.500006ZM144.9 106L167.55 -0.500006H214.35C220.15 -0.500006 225.05 0.999996 229.05 4C233.15 6.9 236.25 10.7 238.35 15.4C240.55 20.1 241.65 25.05 241.65 30.25C241.65 37.25 239.7 44.05 235.8 50.65C232 57.25 226.9 62.65 220.5 66.85L233.25 106H200.25L189.9 73.3H181.05L174.15 106H144.9ZM202.8 47.8C203.9 47.8 205.1 47.2 206.4 46C207.8 44.7 209 42.95 210 40.75C211 38.55 211.5 36.05 211.5 33.25C211.5 30.65 211 28.65 210 27.25C209.1 25.75 208.05 25 206.85 25H191.4L186.6 47.8H202.8ZM245.298 -0.500006H284.598C293.998 -0.500006 301.748 1.34999 307.848 5.04999C313.948 8.74999 318.498 13.75 321.498 20.05C324.498 26.25 325.998 33.25 325.998 41.05C325.998 50.45 324.398 59.1 321.198 67C317.998 74.9 313.498 81.8 307.698 87.7C301.898 93.5 295.098 98 287.298 101.2C279.498 104.4 271.048 106 261.948 106H222.648L245.298 -0.500006ZM267.348 80.5C272.948 80.5 277.898 78.9 282.198 75.7C286.498 72.4 289.848 68.05 292.248 62.65C294.648 57.25 295.848 51.45 295.848 45.25C295.848 39.15 294.398 34.25 291.498 30.55C288.698 26.85 284.598 25 279.198 25H269.148L257.298 80.5H267.348ZM313.711 -0.500006H344.611L348.211 69.25L381.211 -0.500006H411.961L352.561 106H328.261L313.711 -0.500006Z" fill="#001833"/>
</svg>
