<svg width="375" height="98" viewBox="0 0 375 98" fill="none" xmlns="http://www.w3.org/2000/svg">
<path opacity="0.3" d="M-0.615999 98V0.0199947H22.016V42.248L57.896 0.0199947H83.288L46.58 43.766L85.772 98H59.828L32.228 58.67L22.016 69.158V98H-0.615999ZM87.2501 0.0199947L110.296 71.504L133.066 0.0199947H156.94L121.336 98H99.1181L63.2381 0.0199947H87.2501ZM146.014 98V0.0199947H190.174C194.774 0.0199947 199.006 0.985996 202.87 2.918C206.826 4.758 210.23 7.288 213.082 10.508C215.934 13.636 218.142 17.178 219.706 21.134C221.362 25.09 222.19 29.092 222.19 33.14C222.19 39.212 220.718 44.824 217.774 49.976C214.922 55.036 211.058 58.9 206.182 61.568L227.71 98H202.732L183.964 66.398H168.646V98H146.014ZM168.646 46.664H189.346C192.014 46.664 194.314 45.422 196.246 42.938C198.178 40.362 199.144 37.096 199.144 33.14C199.144 29.184 198.04 26.01 195.832 23.618C193.624 21.134 191.232 19.892 188.656 19.892H168.646V46.664ZM218.454 98V0.0199947H255.024C265.788 0.0199947 274.758 2.22799 281.934 6.64399C289.202 10.968 294.676 16.856 298.356 24.308C302.036 31.668 303.876 39.856 303.876 48.872C303.876 58.808 301.852 67.456 297.804 74.816C293.756 82.176 288.052 87.88 280.692 91.928C273.424 95.976 264.868 98 255.024 98H218.454ZM280.83 48.872C280.83 40.224 278.576 33.232 274.068 27.896C269.56 22.56 263.212 19.892 255.024 19.892H241.086V78.128H255.024C260.544 78.128 265.236 76.886 269.1 74.402C272.964 71.826 275.862 68.33 277.794 63.914C279.818 59.498 280.83 54.484 280.83 48.872ZM307.667 0.0199947L330.713 71.504L353.483 0.0199947H377.357L341.753 98H319.535L283.655 0.0199947H307.667Z" fill="url(#paint0_linear)"/>
<defs>
<linearGradient id="paint0_linear" x1="185" y1="-32" x2="185" y2="98" gradientUnits="userSpaceOnUse">
<stop offset="0.276042" stop-color="#001833"/>
<stop offset="1" stop-color="#001833" stop-opacity="0"/>
</linearGradient>
</defs>
</svg>
