<svg width="375" height="97" viewBox="0 0 375 97" fill="none" xmlns="http://www.w3.org/2000/svg">
<path opacity="0.3" d="M-0.683999 97V-0.270005H21.784V41.652L57.404 -0.270005H82.612L46.17 43.159L85.078 97H59.322L31.922 57.955L21.784 68.367V97H-0.683999ZM86.5454 -0.270005L109.424 70.696L132.029 -0.270005H155.73L120.384 97H98.3274L62.7074 -0.270005H86.5454ZM144.884 97V-0.270005H188.724C193.291 -0.270005 197.492 0.688996 201.328 2.607C205.255 4.43366 208.635 6.94533 211.466 10.142C214.297 13.2473 216.489 16.7637 218.042 20.691C219.686 24.6183 220.508 28.5913 220.508 32.61C220.508 38.638 219.047 44.2093 216.124 49.324C213.293 54.3473 209.457 58.1833 204.616 60.832L225.988 97H201.191L182.559 65.627H167.352V97H144.884ZM167.352 46.036H187.902C190.551 46.036 192.834 44.803 194.752 42.337C196.67 39.7797 197.629 36.5373 197.629 32.61C197.629 28.6827 196.533 25.5317 194.341 23.157C192.149 20.691 189.774 19.458 187.217 19.458H167.352V46.036ZM216.798 97V-0.270005H253.103C263.789 -0.270005 272.694 1.92199 279.818 6.30599C287.033 10.5987 292.468 16.444 296.121 23.842C299.774 31.1487 301.601 39.2773 301.601 48.228C301.601 58.092 299.592 66.6773 295.573 73.984C291.554 81.2907 285.892 86.9533 278.585 90.972C271.37 94.9907 262.876 97 253.103 97H216.798ZM278.722 48.228C278.722 39.6427 276.484 32.7013 272.009 27.404C267.534 22.1067 261.232 19.458 253.103 19.458H239.266V77.272H253.103C258.583 77.272 263.241 76.039 267.077 73.573C270.913 71.0157 273.79 67.545 275.708 63.161C277.717 58.777 278.722 53.7993 278.722 48.228ZM305.365 -0.270005L328.244 70.696L350.849 -0.270005H374.55L339.204 97H317.147L281.527 -0.270005H305.365Z" fill="url(#paint0_linear)"/>
<defs>
<linearGradient id="paint0_linear" x1="185" y1="-32" x2="185" y2="98" gradientUnits="userSpaceOnUse">
<stop offset="0.276042" stop-color="#001833"/>
<stop offset="1" stop-color="#001833" stop-opacity="0"/>
</linearGradient>
</defs>
</svg>
