<svg width="64" height="64" viewBox="0 0 64 64" fill="none" xmlns="http://www.w3.org/2000/svg">
<circle cx="32" cy="32" r="32" fill="#E3E6EB"/>
<path d="M27.968 49.288C25.184 49.288 22.928 48.776 21.2 47.752C19.504 46.728 18.256 45.336 17.456 43.576C16.688 41.784 16.304 39.784 16.304 37.576C16.304 35.912 16.496 34.2 16.88 32.44L20.624 14.92H29.984L26.24 32.44C26.112 33.048 26.016 33.64 25.952 34.216C25.888 34.76 25.856 35.304 25.856 35.848C25.856 37.32 26.16 38.552 26.768 39.544C27.376 40.504 28.368 40.984 29.744 40.984C31.024 40.984 32.144 40.584 33.104 39.784C34.064 38.952 34.848 37.896 35.456 36.616C36.096 35.304 36.576 33.912 36.896 32.44L40.64 14.92H50L46.256 32.44C45.584 35.608 44.448 38.472 42.848 41.032C41.248 43.56 39.2 45.576 36.704 47.08C34.24 48.552 31.328 49.288 27.968 49.288Z" fill="#001833"/>
</svg>
