<svg width="64" height="64" viewBox="0 0 64 64" fill="none" xmlns="http://www.w3.org/2000/svg">
<circle cx="32" cy="32" r="32" fill="#001833"/>
<path d="M28.76 49.432C26.424 49.432 24.04 49.064 21.608 48.328C19.176 47.592 17.112 46.632 15.416 45.448L21.176 37.24C21.176 37.304 21.448 37.528 21.992 37.912C22.536 38.296 23.256 38.728 24.152 39.208C25.048 39.688 26.056 40.104 27.176 40.456C28.296 40.808 29.464 40.984 30.68 40.984C31.768 40.984 32.456 40.808 32.744 40.456C33.032 40.072 33.176 39.656 33.176 39.208C33.176 38.632 32.872 38.168 32.264 37.816C31.656 37.432 30.872 37.096 29.912 36.808C28.984 36.488 27.992 36.12 26.936 35.704C24.824 34.872 23.24 33.864 22.184 32.68C21.16 31.496 20.648 29.992 20.648 28.168C20.648 26.024 21.064 24.12 21.896 22.456C22.76 20.76 23.912 19.336 25.352 18.184C26.792 17.032 28.392 16.152 30.152 15.544C31.912 14.936 33.704 14.632 35.528 14.632C37.128 14.632 38.632 14.84 40.04 15.256C41.448 15.64 42.744 16.12 43.928 16.696C45.112 17.272 46.136 17.816 47 18.328L41.336 26.056C41.336 25.992 41.096 25.8 40.616 25.48C40.168 25.16 39.56 24.808 38.792 24.424C38.024 24.04 37.176 23.704 36.248 23.416C35.32 23.096 34.392 22.936 33.464 22.936C32.76 22.936 32.152 23.096 31.64 23.416C31.16 23.736 30.92 24.248 30.92 24.952C30.92 25.688 31.384 26.248 32.312 26.632C33.272 27.016 34.504 27.48 36.008 28.024C37.544 28.6 38.888 29.24 40.04 29.944C41.224 30.616 42.136 31.464 42.776 32.488C43.416 33.512 43.736 34.824 43.736 36.424C43.736 38.856 43.288 40.904 42.392 42.568C41.496 44.232 40.312 45.576 38.84 46.6C37.368 47.592 35.752 48.312 33.992 48.76C32.232 49.208 30.488 49.432 28.76 49.432Z" fill="#E3E6EB"/>
</svg>
