<svg width="64" height="64" viewBox="0 0 64 64" fill="none" xmlns="http://www.w3.org/2000/svg">
<circle cx="32" cy="32" r="32" fill="#E3E6EB"/>
<path d="M15.856 49L23.104 14.92H38.08C39.936 14.92 41.504 15.4 42.784 16.36C44.096 17.288 45.088 18.504 45.76 20.008C46.464 21.512 46.816 23.096 46.816 24.76C46.816 27 46.192 29.176 44.944 31.288C43.728 33.4 42.096 35.128 40.048 36.472L44.128 49H33.568L30.256 38.536H27.424L25.216 49H15.856ZM34.384 30.376C34.736 30.376 35.12 30.184 35.536 29.8C35.984 29.384 36.368 28.824 36.688 28.12C37.008 27.416 37.168 26.616 37.168 25.72C37.168 24.888 37.008 24.248 36.688 23.8C36.4 23.32 36.064 23.08 35.68 23.08H30.736L29.2 30.376H34.384Z" fill="#001833"/>
</svg>
