<svg width="22" height="11" viewBox="0 0 22 11" fill="none" xmlns="http://www.w3.org/2000/svg">
<rect x="0.5" y="0.5" width="21" height="10" rx="2.5" stroke="#E3E6EB"/>
<path d="M5.712 8.08C5.38667 8.08 5.09067 8 4.824 7.84C4.55733 7.68 4.34667 7.472 4.192 7.216V8H3.568V2.16H4.272V4.656C4.448 4.384 4.664 4.16533 4.92 4C5.176 3.83467 5.47467 3.752 5.816 3.752C6.104 3.752 6.36267 3.81333 6.592 3.936C6.82133 4.05333 7.016 4.216 7.176 4.424C7.34133 4.62667 7.46667 4.85867 7.552 5.12C7.64267 5.376 7.688 5.64533 7.688 5.928C7.688 6.31733 7.6 6.67733 7.424 7.008C7.25333 7.33333 7.01867 7.59467 6.72 7.792C6.42133 7.984 6.08533 8.08 5.712 8.08ZM5.536 7.472C5.81867 7.472 6.06667 7.4 6.28 7.256C6.49333 7.10667 6.66133 6.91467 6.784 6.68C6.90667 6.44533 6.968 6.19467 6.968 5.928C6.968 5.656 6.90933 5.4 6.792 5.16C6.68 4.92 6.52 4.728 6.312 4.584C6.10933 4.43467 5.872 4.36 5.6 4.36C5.30133 4.36 5.03467 4.456 4.8 4.648C4.57067 4.84 4.39467 5.06933 4.272 5.336V6.544C4.30933 6.72 4.39467 6.88 4.528 7.024C4.66667 7.16267 4.82667 7.272 5.008 7.352C5.19467 7.432 5.37067 7.472 5.536 7.472ZM10.4004 8.08C9.98438 8.08 9.61638 7.98133 9.29638 7.784C8.97638 7.58667 8.72571 7.32267 8.54438 6.992C8.36304 6.66133 8.27238 6.30133 8.27238 5.912C8.27238 5.51733 8.36304 5.15733 8.54438 4.832C8.72571 4.50667 8.97638 4.24533 9.29638 4.048C9.62171 3.85067 9.99238 3.752 10.4084 3.752C10.8297 3.752 11.195 3.85333 11.5044 4.056C11.819 4.25333 12.0617 4.51467 12.2324 4.84C12.4084 5.16 12.4964 5.50667 12.4964 5.88C12.4964 5.99733 12.491 6.088 12.4804 6.152H9.01638C9.03771 6.424 9.11238 6.66667 9.24038 6.88C9.37371 7.088 9.54438 7.25333 9.75238 7.376C9.96038 7.49333 10.1844 7.552 10.4244 7.552C10.6804 7.552 10.9204 7.488 11.1444 7.36C11.3737 7.232 11.531 7.064 11.6164 6.856L12.2244 7.024C12.091 7.33333 11.859 7.58667 11.5284 7.784C11.1977 7.98133 10.8217 8.08 10.4004 8.08ZM8.99238 5.664H11.8404C11.819 5.392 11.7417 5.152 11.6084 4.944C11.475 4.736 11.3044 4.57333 11.0964 4.456C10.8884 4.33867 10.659 4.28 10.4084 4.28C10.163 4.28 9.93638 4.33867 9.72838 4.456C9.52038 4.57333 9.34971 4.736 9.21638 4.944C9.08838 5.152 9.01371 5.392 8.99238 5.664ZM15.3999 7.792C15.3145 7.82933 15.1785 7.88267 14.9919 7.952C14.8105 8.02133 14.6079 8.056 14.3839 8.056C14.1279 8.056 13.9065 7.98667 13.7199 7.848C13.5332 7.704 13.4399 7.48267 13.4399 7.184V4.376H12.8719V3.824H13.4399V2.432H14.1439V3.824H15.0799V4.376H14.1439V6.968C14.1545 7.11733 14.2052 7.22933 14.2959 7.304C14.3865 7.37333 14.4932 7.408 14.6159 7.408C14.7545 7.408 14.8825 7.384 14.9999 7.336C15.1172 7.288 15.1945 7.25333 15.2319 7.232L15.3999 7.792ZM15.7244 6.792C15.7244 6.52533 15.799 6.296 15.9484 6.104C16.103 5.90667 16.3137 5.75467 16.5804 5.648C16.847 5.54133 17.1564 5.488 17.5084 5.488C17.695 5.488 17.8924 5.504 18.1004 5.536C18.3084 5.56267 18.4924 5.60533 18.6524 5.664V5.36C18.6524 5.04 18.5564 4.78933 18.3644 4.608C18.1724 4.42133 17.9004 4.328 17.5484 4.328C17.319 4.328 17.0977 4.37067 16.8844 4.456C16.6764 4.536 16.455 4.65333 16.2204 4.808L15.9644 4.312C16.2364 4.12533 16.5084 3.98667 16.7804 3.896C17.0524 3.8 17.335 3.752 17.6284 3.752C18.1617 3.752 18.583 3.90133 18.8924 4.2C19.2017 4.49333 19.3564 4.904 19.3564 5.432V7.2C19.3564 7.36533 19.431 7.45067 19.5804 7.456V8C19.511 8.01067 19.4497 8.01867 19.3964 8.024C19.3484 8.02933 19.3084 8.032 19.2764 8.032C19.111 8.032 18.9857 7.98667 18.9004 7.896C18.8204 7.80533 18.775 7.70933 18.7644 7.608L18.7484 7.344C18.567 7.57867 18.3297 7.76 18.0364 7.888C17.743 8.016 17.4524 8.08 17.1644 8.08C16.887 8.08 16.639 8.024 16.4204 7.912C16.2017 7.79467 16.031 7.64 15.9084 7.448C15.7857 7.25067 15.7244 7.032 15.7244 6.792ZM18.4444 7.088C18.5084 7.01333 18.559 6.93867 18.5964 6.864C18.6337 6.784 18.6524 6.71733 18.6524 6.664V6.144C18.311 6.01067 17.959 5.944 17.5964 5.944C17.239 5.944 16.9484 6.016 16.7244 6.16C16.5057 6.29867 16.3964 6.49067 16.3964 6.736C16.3964 6.86933 16.431 7 16.5004 7.128C16.575 7.25067 16.6817 7.352 16.8204 7.432C16.9644 7.512 17.1404 7.552 17.3484 7.552C17.567 7.552 17.775 7.50933 17.9724 7.424C18.1697 7.33333 18.327 7.22133 18.4444 7.088Z" fill="#E3E6EB"/>
</svg>
