<svg width="32" height="32" viewBox="0 0 32 32" fill="none" xmlns="http://www.w3.org/2000/svg">
<g clip-path="url(#clip0)">
<path d="M16 0.723206C7.16 0.723206 0 7.7505 0 16.4175C0 23.353 4.584 29.2343 10.94 31.3079C11.74 31.4556 12.0333 30.9699 12.0333 30.5533C12.0333 30.1806 12.02 29.1931 12.0133 27.8848C7.56267 28.8311 6.624 25.7792 6.624 25.7792C5.896 23.9678 4.844 23.4834 4.844 23.4834C3.39467 22.5105 4.956 22.5304 4.956 22.5304C6.56267 22.6396 7.40667 24.1475 7.40667 24.1475C8.83333 26.5472 11.152 25.8538 12.0667 25.4532C12.2107 24.4377 12.6227 23.7469 13.08 23.3543C9.52667 22.9617 5.792 21.6121 5.792 15.599C5.792 13.8861 6.412 12.4859 7.43867 11.3879C7.25867 10.9913 6.71867 9.39553 7.57867 7.2341C7.57867 7.2341 8.91867 6.81353 11.9787 8.84319C13.2587 8.49449 14.6187 8.32147 15.9787 8.31348C17.3387 8.32147 18.6987 8.49449 19.9787 8.84319C23.0187 6.81353 24.3587 7.2341 24.3587 7.2341C25.2187 9.39553 24.6787 10.9913 24.5187 11.3879C25.5387 12.4859 26.1587 13.8861 26.1587 15.599C26.1587 21.6281 22.4187 22.955 18.8587 23.341C19.4187 23.8121 19.9387 24.7744 19.9387 26.2451C19.9387 28.3453 19.9187 30.0329 19.9187 30.5426C19.9187 30.9539 20.1987 31.445 21.0187 31.2879C27.42 29.2277 32 23.3423 32 16.4175C32 7.7505 24.836 0.723206 16 0.723206V0.723206Z" fill="#E3E6EB"/>
</g>
<defs>
<clipPath id="clip0">
<rect width="32" height="31.9423" fill="white" transform="translate(0 0.0577393)"/>
</clipPath>
</defs>
</svg>
