<svg width="32" height="32" viewBox="0 0 32 32" fill="none" xmlns="http://www.w3.org/2000/svg">
<g clip-path="url(#clip0)">
<path d="M16 0.666687C7.16 0.666687 0 7.70669 0 16.3894C0 23.3374 4.584 29.2294 10.94 31.3067C11.74 31.4547 12.0333 30.968 12.0333 30.5507C12.0333 30.1774 12.02 29.188 12.0133 27.8774C7.56267 28.8254 6.624 25.768 6.624 25.768C5.896 23.9534 4.844 23.468 4.844 23.468C3.39467 22.4934 4.956 22.5134 4.956 22.5134C6.56267 22.6227 7.40667 24.1334 7.40667 24.1334C8.83333 26.5374 11.152 25.8427 12.0667 25.4414C12.2107 24.424 12.6227 23.732 13.08 23.3387C9.52667 22.9454 5.792 21.5934 5.792 15.5694C5.792 13.8534 6.412 12.4507 7.43867 11.3507C7.25867 10.9534 6.71867 9.35469 7.57867 7.18935C7.57867 7.18935 8.91867 6.76802 11.9787 8.80135C13.2587 8.45202 14.6187 8.27869 15.9787 8.27069C17.3387 8.27869 18.6987 8.45202 19.9787 8.80135C23.0187 6.76802 24.3587 7.18935 24.3587 7.18935C25.2187 9.35469 24.6787 10.9534 24.5187 11.3507C25.5387 12.4507 26.1587 13.8534 26.1587 15.5694C26.1587 21.6094 22.4187 22.9387 18.8587 23.3254C19.4187 23.7974 19.9387 24.7614 19.9387 26.2347C19.9387 28.3387 19.9187 30.0294 19.9187 30.54C19.9187 30.952 20.1987 31.444 21.0187 31.2867C27.42 29.2227 32 23.3267 32 16.3894C32 7.70669 24.836 0.666687 16 0.666687Z" fill="#E3E6EB"/>
</g>
<defs>
<clipPath id="clip0">
<rect width="32" height="32" fill="white"/>
</clipPath>
</defs>
</svg>
