<svg width="32" height="32" viewBox="0 0 32 32" fill="none" xmlns="http://www.w3.org/2000/svg">
<g clip-path="url(#clip0)">
<path d="M16.0006 0C7.16438 0 0.00100708 7.16359 0.00100708 15.9998C0.00100708 24.8359 7.16438 32 16.0006 32C24.8369 32 32.0008 24.8359 32.0008 15.9998C32.0008 7.16359 24.8369 0 16.0006 0ZM16.0009 5.6199L25.4691 11.524H6.5328L16.0009 5.6199ZM25.5871 20.952H25.5861C25.5861 21.899 24.8186 22.6664 23.8717 22.6664H8.13015C7.18316 22.6664 6.41579 21.8989 6.41579 20.952V11.8996C6.41579 11.7995 6.42603 11.7021 6.44267 11.6064L15.4889 17.2473C15.5 17.2543 15.5119 17.2589 15.5233 17.2653C15.5352 17.272 15.5474 17.2784 15.5596 17.2844C15.6235 17.3174 15.6893 17.344 15.7566 17.3613C15.7635 17.3633 15.7704 17.3641 15.7774 17.3657C15.8512 17.3831 15.926 17.394 16.0006 17.394H16.0012C16.0017 17.394 16.0022 17.394 16.0022 17.394C16.0769 17.394 16.1517 17.3834 16.2255 17.3657C16.2324 17.364 16.2394 17.3633 16.2463 17.3613C16.3135 17.344 16.3791 17.3174 16.4433 17.2844C16.4555 17.2784 16.4676 17.272 16.4796 17.2653C16.4909 17.2589 16.5028 17.2543 16.5139 17.2473L25.5602 11.6064C25.5768 11.7021 25.5871 11.7993 25.5871 11.8996V20.952Z" fill="#E3E6EB"/>
</g>
<defs>
<clipPath id="clip0">
<rect width="32" height="32" fill="white"/>
</clipPath>
</defs>
</svg>
