<svg width="32" height="32" viewBox="0 0 32 32" fill="none" xmlns="http://www.w3.org/2000/svg">
<path d="M16 32C24.8366 32 32 24.8366 32 16C32 7.16344 24.8366 0 16 0C7.16344 0 0 7.16344 0 16C0 24.8366 7.16344 32 16 32Z" fill="#E3E6EB"/>
<path d="M7.32135 15.6533L22.748 9.7053C23.464 9.44664 24.0894 9.87997 23.8574 10.9626L23.8587 10.9613L21.232 23.336C21.0374 24.2133 20.516 24.4266 19.7867 24.0133L15.7867 21.0653L13.8574 22.924C13.644 23.1373 13.464 23.3173 13.0507 23.3173L13.3347 19.2466L20.748 12.5493C21.0707 12.2653 20.676 12.1053 20.2507 12.388L11.0894 18.156L7.14001 16.924C6.28268 16.652 6.26401 16.0666 7.32135 15.6533Z" fill="#001833"/>
</svg>
