<svg width="32" height="32" viewBox="0 0 32 32" fill="none" xmlns="http://www.w3.org/2000/svg">
<g clip-path="url(#clip0)">
<path d="M16 0C7.17333 0 0 7.17333 0 16C0 24.8267 7.17333 32 16 32C17 32 17.9733 31.9067 18.9333 31.7333L17.84 28.4533C17.68 28.6133 17.5067 28.7467 17.3333 28.8667V26.92L14.8533 19.4933C14.72 19.1067 14.6667 18.7067 14.6667 18.32V21.0267C13.4 21.08 12.16 21.1867 10.9867 21.3867C10.7467 20.1333 10.5867 18.7733 10.52 17.3067H14.6667V18.32C14.6667 17.3733 15.04 16.4533 15.7467 15.7467C16.4267 15.0533 17.3467 14.6667 18.3333 14.6667C18.7333 14.6667 19.12 14.7333 19.5067 14.8533L26.8533 17.3067H29.2667C29.24 17.5733 29.2133 17.8267 29.16 18.08L31.7333 18.9333C31.9067 17.9733 32 17 32 16C32 7.17333 24.8267 0 16 0V0ZM14.6667 23.6933V28.8667C13.52 28.0933 12.4267 26.3867 11.6533 23.9733C12.6267 23.8267 13.6267 23.7333 14.6667 23.6933ZM4.8 8.78667C5.86667 9.29333 7.06667 9.72 8.37333 10.0667C8.09333 11.4933 7.92 13.0267 7.85333 14.64H2.73333C2.94667 12.5067 3.69333 10.52 4.8 8.78667ZM2.73333 17.3067H7.85333C7.92 18.9467 8.09333 20.4933 8.37333 21.9333C7.06667 22.28 5.86667 22.7067 4.8 23.2133C3.68 21.48 2.94667 19.4667 2.73333 17.3067ZM10.5867 28.1733C9.05333 27.4933 7.68 26.5333 6.52 25.36C7.28 25.0267 8.12 24.7467 9.01333 24.52C9.44 25.8933 9.97333 27.1333 10.5867 28.1733ZM9.01333 7.48C8.12 7.25333 7.28 6.97333 6.52 6.64C7.68 5.46667 9.05333 4.50667 10.5867 3.82667C9.97333 4.86667 9.44 6.10667 9.01333 7.48ZM14.6667 14.64H10.52C10.5867 13.2 10.7467 11.8533 10.9867 10.6133C12.16 10.8133 13.4 10.92 14.6667 10.9733V14.64ZM14.6667 8.30667C13.6267 8.26667 12.6267 8.17333 11.6533 8.02667C12.4267 5.61333 13.52 3.90667 14.6667 3.13333V8.30667ZM17.3333 3.13333C18.48 3.90667 19.5733 5.61333 20.3467 8.02667C19.3733 8.17333 18.3733 8.26667 17.3333 8.30667V3.13333ZM17.3333 14.64V10.9733C18.6 10.92 19.84 10.8133 21.0133 10.6133C21.2533 11.8533 21.4133 13.2 21.48 14.64H17.3333ZM21.4133 3.82667C22.9467 4.50667 24.32 5.46667 25.48 6.64C24.72 6.97333 23.88 7.25333 22.9867 7.48C22.56 6.10667 22.0267 4.86667 21.4133 3.82667ZM24.1467 14.64C24.08 13.0267 23.9067 11.4933 23.6267 10.0667C24.9333 9.72 26.1333 9.29333 27.2 8.78667C28.3067 10.52 29.0533 12.5067 29.2667 14.64H24.1467Z" fill="#E3E6EB"/>
<path d="M22.556 32C22.5493 32 22.5413 32 22.5333 32C22.112 31.9907 21.7413 31.7173 21.608 31.316L17.3853 18.6493C17.2653 18.2893 17.3587 17.8933 17.6267 17.6253C17.8947 17.356 18.2907 17.2627 18.6507 17.384L31.3173 21.6067C31.7173 21.74 31.9907 22.1107 32.0013 22.532C32.0107 22.9533 31.7547 23.3373 31.36 23.488L25.676 25.6747L23.4893 31.3587C23.34 31.7467 22.968 32 22.556 32Z" fill="#E3E6EB"/>
</g>
<defs>
<clipPath id="clip0">
<rect width="32" height="32" fill="white"/>
</clipPath>
</defs>
</svg>
